# xmcd
#
# Track frame offsets:
#	180
#	10633
#	21581
#	32434
#	43477
#	54196
#	65941
#	77823
#	89500
#	99394
#	112495
#	123789
#	133150
#	144278
#	157565
#	167988
#	177612
#	187395
#	198198
#	207938
#	216896
#	227296
#	238339
#	251327
#
# Disc length: 3496
#
# Revision: 4
# Processed by: cddbd v1.5.1PL0 Copyright (c) Steve Scherf et al.
# Submitted via: EasyCDDAExtractor 5.0.6
# Normalized: r3:DSETVAR1
#
DISCID=5a0da618
DTITLE=Various Artist - It's Okeh Up North - A Northern Obsesion
DYEAR=1900
DGENRE=Blues
TTITLE0=Little Richard - I Don't Want To Discuss It
TTITLE1=Triumphs - I'm Coming To Your Rescue
TTITLE2=Major Lance - Don't Fight it
TTITLE3=Billy Butler - Right Track
TTITLE4=Artistics - This Heart Of Mine
TTITLE5=Major Lance - Investigate
TTITLE6=Willimams and Watson - A Quiter Never Wins
TTITLE7=Carstairs - He Who Picks A Rose
TTITLE8=Major Lance - You Don't Want Me No More
TTITLE9=Sandi Sheldon - You're Gonna Make Me Love You
TTITLE10=Larry Williams - This Old Heart (Is So Lonely)
TTITLE11=Vibrations - Finding Out The Hard Way
TTITLE12=Tommy Tate - I'm Taking No Pain
TTITLE13=Major Lance - (Get My Hat) Nothing Can Stop Me
TTITLE14=Williams and Watson - Too Late
TTITLE15=Walter Jackson - Where Have All The Flowers Gone
TTITLE16=Vibrations - Gonna Get Along Without You
TTITLE17=Seven Souls - I Still Love You
TTITLE18=Major Lance - Everybody Loves A Good Time
TTITLE19=Autographs - I Can't Do It
TTITLE20=Major Harris - Call Me Tommorow
TTITLE21=Major Lance - The Beat
TTITLE22=Walter Jackson - It's An Uphill Climb To The Bottom
TTITLE23=Major Lance - Ain't No Soul Left In These Old Shoes
EXTD=tim1701
EXTT0=
EXTT1=
EXTT2=
EXTT3=
EXTT4=
EXTT5=
EXTT6=
EXTT7=
EXTT8=
EXTT9=
EXTT10=
EXTT11=
EXTT12=
EXTT13=
EXTT14=
EXTT15=
EXTT16=
EXTT17=
EXTT18=
EXTT19=
EXTT20=
EXTT21=
EXTT22=
EXTT23=
PLAYORDER=
